<svg height="512" width="512" xmlns="http://www.w3.org/2000/svg"><path d="m289.6430054 149.25h-226.9984207c-83.5732727 0-82.8099136-119-2.0001259-119h225.9983673c91.6651268 0 87.6674766 119 3.0001793 119zm154.7317199 51.5h-225.9983673c-80.8097992 0-81.5731506 119 2.0001221 119h226.9984283c84.6672669 0 88.6649476-119-3.0001831-119zm-157.731903 162.5h-225.9983635c-80.8097916 0-81.5731506 119 2.0001259 119h226.9984131c84.6673049 0 88.6649551-119-3.0001755-119zm-166.6428223-103c0-46.0167999-50.1580048-74.9334412-90.0677185-51.9250336s-39.9096985 80.8416901.0000134 103.8500824 90.0677051-5.9082641 90.0677051-51.9250488zm392-170.5c0-46.0167923-50.15802-74.9334412-90.0677185-51.9250412s-39.9096985 80.8416977 0 103.85009 90.0677185-5.9082489 90.0677185-51.9250488zm0 332.5c0-46.0167847-50.15802-74.9334412-90.0677185-51.9250488s-39.9096985 80.8417053 0 103.8500977 90.0677185-5.9082642 90.0677185-51.9250489z"/></svg>