<svg width="304" height="338" viewBox="0 0 304 338" fill="none" xmlns="http://www.w3.org/2000/svg">
<path d="M22 103.195C22 91.4935 28.8037 80.8598 39.4283 75.9562L139.428 29.8023C147.405 26.1207 156.595 26.1207 164.572 29.8023L264.572 75.9562C275.196 80.8598 282 91.4934 282 103.195V234.805C282 246.507 275.196 257.14 264.572 262.044L164.572 308.198C156.595 311.879 147.405 311.879 139.428 308.198L39.4283 262.044C28.8037 257.14 22 246.507 22 234.805V103.195Z" fill="#0F172A"/>
<path d="M299 89.1516V248.848C299 258.611 293.318 267.48 284.449 271.56L162.449 327.689C155.817 330.74 148.183 330.74 141.551 327.689L19.551 271.56C10.6824 267.48 5 258.611 5 248.848V89.1516C5 79.3894 10.6824 70.5202 19.551 66.4399L141.551 10.3111C148.183 7.25994 155.817 7.25993 162.449 10.3111L284.449 66.4399C293.318 70.5201 299 79.3894 299 89.1516Z" stroke="#0F172A" stroke-width="10"/>
<path d="M71.9614 254.923V96.9119C71.9614 94.9989 74.3892 94.1776 75.5506 95.6977L148.782 191.545C149.609 192.627 151.252 192.584 152.021 191.461L200.675 120.437M93.3176 254.923V155.646M108.325 120.437L150.46 174.116M145.5 228.5L233.374 96.5049C234.471 94.8572 237.039 95.6338 237.039 97.6132V254.923M222.609 239.916V128.518" stroke="white" stroke-width="4"/>
<circle cx="222.609" cy="252.037" r="3.46316" fill="white"/>
</svg>
